<svg width="20" height="20" viewBox="0 0 20 20" fill="none" xmlns="http://www.w3.org/2000/svg">
<g clip-path="url(#clip0_15_28)">
<path d="M18.3334 1.66667H12.9167L11.25 5.95834C12.156 6.14382 13.0096 6.52773 13.7495 7.08247C14.4894 7.63722 15.0972 8.34901 15.5292 9.16667L18.3334 1.66667ZM7.08335 1.66667H1.66669L4.47085 9.16667C4.90284 8.34901 5.51063 7.63722 6.25053 7.08247C6.99043 6.52773 7.84405 6.14382 8.75002 5.95834L7.08335 1.66667Z" stroke="#31BCD3" stroke-width="1.66667" stroke-linecap="round" stroke-linejoin="round"/>
<path d="M16.25 12.0833C16.25 15.535 13.4517 18.3333 10 18.3333C6.54833 18.3333 3.75 15.535 3.75 12.0833C3.75 11.03 4.01042 10.0375 4.47083 9.16668C4.90282 8.34901 5.51061 7.63722 6.25051 7.08248C6.99041 6.52773 7.84403 6.14382 8.75 5.95834C9.15417 5.87626 9.57208 5.83334 10 5.83334C10.4279 5.83334 10.8458 5.87626 11.25 5.95834C12.156 6.14382 13.0096 6.52773 13.7495 7.08248C14.4894 7.63722 15.0972 8.34901 15.5292 9.16668C16.0041 10.0654 16.2515 11.0668 16.25 12.0833Z" stroke="#31BCD3" stroke-width="1.66667" stroke-linecap="round" stroke-linejoin="round"/>
<path d="M10 14.5833V9.16667L8.75004 9.58334M10 14.5833H11.6667M10 14.5833H8.33337" stroke="#31BCD3" stroke-width="1.66667" stroke-linecap="round" stroke-linejoin="round"/>
</g>
<defs>
<clipPath id="clip0_15_28">
<rect width="20" height="20" fill="white"/>
</clipPath>
</defs>
</svg>
