<svg width="20" height="20" viewBox="0 0 20 20" fill="none" xmlns="http://www.w3.org/2000/svg">
<path d="M19.23 13.8303C19.7252 12.6314 19.9863 11.3487 19.9992 10.0516V9.95547C19.9924 8.42381 19.6339 6.91417 18.9513 5.54302C18.2686 4.17187 17.2801 2.97586 16.0621 2.04727C14.844 1.11867 13.4288 0.482306 11.9258 0.187268C10.4228 -0.107771 8.87216 -0.0535968 7.39341 0.34561C5.91467 0.744817 4.5474 1.47839 3.39708 2.48972C2.24676 3.50106 1.34414 4.76314 0.758852 6.17858C0.173566 7.59402 -0.0787422 9.125 0.0213942 10.6534C0.121531 12.1818 0.571434 13.6668 1.3364 14.9938C1.5287 15.3207 1.74023 15.638 1.96138 15.9456L2.00945 16.013C3.05772 17.4074 4.45286 18.503 6.05606 19.1908C7.65925 19.8786 9.4146 20.1346 11.1475 19.9333C12.8803 19.732 14.5302 19.0804 15.9331 18.0435C17.3359 17.0065 18.4428 15.6202 19.1435 14.0226C19.182 13.9633 19.2112 13.8985 19.23 13.8303ZM6.45161 2.3115C7.19346 1.97058 7.98024 1.73747 8.78806 1.61922C10.2229 2.30739 11.4348 3.3858 12.2851 4.73091C13.1354 6.07602 13.5895 7.63343 13.5956 9.22472H10.4419L6.45161 2.3115ZM10.4419 10.7631H18.4223C18.3465 11.5745 18.1554 12.3709 17.8551 13.1284C16.5417 14.0265 15.0022 14.5371 13.4125 14.6017C11.8227 14.6663 10.2469 14.2824 8.86498 13.4938L10.4419 10.7631ZM17.3262 5.7633C17.94 6.8232 18.3142 8.00471 18.4223 9.22472H15.134C15.1247 7.8002 14.8141 6.39376 14.2224 5.09786C13.6308 3.80196 12.7717 2.64593 11.7014 1.70575C12.8724 1.94634 13.9791 2.43234 14.9487 3.13173C15.9182 3.83111 16.7285 4.728 17.3262 5.7633ZM5.12473 3.0807L6.7689 5.93638C5.53614 6.65439 4.47058 7.62693 3.64325 8.78916C2.81593 9.9514 2.24584 11.2766 1.97099 12.6765C1.3982 10.9503 1.39553 9.0857 1.9634 7.35787C2.53126 5.63004 3.63957 4.13054 5.12473 3.0807ZM3.35556 15.2341C3.23204 13.6466 3.55902 12.0564 4.29891 10.6463C5.03879 9.23631 6.16154 8.06368 7.53811 7.26325L9.11498 9.99393L5.12473 16.9072C4.45403 16.4419 3.85757 15.8778 3.35556 15.2341ZM14.2302 17.3206C13.0563 17.9977 11.7369 18.3826 10.3831 18.4428C9.02936 18.503 7.68095 18.2369 6.45161 17.6667L8.09578 14.8207C9.33301 15.529 10.7069 15.9657 12.1261 16.1017C13.5452 16.2376 14.9771 16.0697 16.3263 15.6091C15.7235 16.2879 15.0158 16.8657 14.2302 17.3206Z" fill="#31BCD3"/>
</svg>
